<?xml version="1.0" encoding="utf-8"?>
<!-- Generator: Adobe Illustrator 19.1.0, SVG Export Plug-In . SVG Version: 6.00 Build 0)  -->
<svg version="1.1" id="Layer_1" xmlns="http://www.w3.org/2000/svg" xmlns:xlink="http://www.w3.org/1999/xlink" x="0px" y="0px"
	 viewBox="-455 265 49 32" enable-background="new -455 265 49 32" xml:space="preserve">
<g>
	<rect x="-454.5" y="266.4" fill="#5180F4" width="22.7" height="28.2"/>
	<rect x="-430.8" y="266.4" fill="#5180F4" width="22.7" height="28.2"/>
	<rect x="-429.8" y="266.4" fill="#E5DDE8" width="19.1" height="27"/>
	<rect x="-451.9" y="266.4" fill="#E5DDE8" width="19.1" height="27"/>
	<rect x="-411.3" y="272.8" fill="#A6C60B" width="1.3" height="4.2"/>
	<rect x="-430.4" y="266.4" fill="#FFFFFF" width="19.1" height="27"/>
	<rect x="-451.3" y="266.4" fill="#FFFFFF" width="19.1" height="27"/>
	<rect x="-452.6" y="269" fill="#58D4E0" width="1.3" height="4.2"/>
	<rect x="-452.6" y="282.4" fill="#596575" width="1.3" height="4.2"/>
	<g>
		<g>
			<circle fill="#5180F4" cx="-433.7" cy="269.7" r="0.7"/>
			<circle fill="#5180F4" cx="-429.3" cy="269.7" r="0.7"/>
		</g>
		<rect x="-433.9" y="269.4" fill="#58D4E0" width="4.9" height="0.7"/>
	</g>
	<g>
		<g>
			<circle fill="#5180F4" cx="-433.7" cy="274.8" r="0.7"/>
			<circle fill="#5180F4" cx="-429.3" cy="274.8" r="0.7"/>
		</g>
		<rect x="-433.9" y="274.5" fill="#58D4E0" width="4.9" height="0.7"/>
	</g>
	<g>
		<g>
			<circle fill="#5180F4" cx="-433.7" cy="279.9" r="0.7"/>
			<circle fill="#5180F4" cx="-429.3" cy="279.9" r="0.7"/>
		</g>
		<rect x="-433.9" y="279.6" fill="#58D4E0" width="4.9" height="0.7"/>
	</g>
	<g>
		<g>
			<circle fill="#5180F4" cx="-433.7" cy="285" r="0.7"/>
			<circle fill="#5180F4" cx="-429.3" cy="285" r="0.7"/>
		</g>
		<rect x="-433.9" y="284.7" fill="#58D4E0" width="4.9" height="0.7"/>
	</g>
	<g>
		<g>
			<circle fill="#5180F4" cx="-433.7" cy="290.1" r="0.7"/>
			<circle fill="#5180F4" cx="-429.3" cy="290.1" r="0.7"/>
		</g>
		<rect x="-433.9" y="289.8" fill="#58D4E0" width="4.9" height="0.7"/>
	</g>
</g>
</svg>
